<?xml version="1.0" encoding="UTF-8" standalone="no"?>
<!DOCTYPE svg PUBLIC "-//W3C//DTD SVG 1.1//EN"
 "http://www.w3.org/Graphics/SVG/1.1/DTD/svg11.dtd">
<!-- Generated by graphviz version 2.38.0 (20140413.2041)
 -->
<!-- Title: G Pages: 1 -->
<svg width="280pt" height="105pt"
 viewBox="0.00 0.00 280.19 105.40" xmlns="http://www.w3.org/2000/svg" xmlns:xlink="http://www.w3.org/1999/xlink">
<g id="graph0" class="graph" transform="scale(1 1) rotate(0) translate(4 101.396)">
<title>G</title>
<polygon fill="white" stroke="none" points="-4,4 -4,-101.396 276.187,-101.396 276.187,4 -4,4"/>
<!-- 0 -->
<g id="node1" class="node"><title>0</title>
<ellipse fill="none" stroke="black" cx="28.6978" cy="-35.6978" rx="24.8692" ry="24.8692"/>
<ellipse fill="none" stroke="black" cx="28.6978" cy="-35.6978" rx="28.897" ry="28.897"/>
<text text-anchor="middle" x="28.6978" y="-31.9978" font-family="Times,serif" font-size="14.00">S00</text>
</g>
<!-- 0&#45;&gt;0 -->
<g id="edge4" class="edge"><title>0&#45;&gt;0</title>
<path fill="none" stroke="black" stroke-width="2" d="M18.2619,-62.5709C17.6723,-73.3491 21.1509,-82.3956 28.6978,-82.3956 33.6504,-82.3956 36.851,-78.4996 38.2996,-72.7749"/>
<polygon fill="black" stroke="black" stroke-width="2" points="41.8073,-72.8229 39.1337,-62.5709 34.8305,-72.2525 41.8073,-72.8229"/>
<text text-anchor="middle" x="28.6978" y="-86.1956" font-family="Times,serif" font-size="14.00">E01</text>
</g>
<!-- 1 -->
<g id="node2" class="node"><title>1</title>
<ellipse fill="none" stroke="black" cx="140.093" cy="-60.6978" rx="24.8972" ry="24.8972"/>
<text text-anchor="middle" x="140.093" y="-56.9978" font-family="Times,serif" font-size="14.00">S01</text>
</g>
<!-- 0&#45;&gt;1 -->
<g id="edge1" class="edge"><title>0&#45;&gt;1</title>
<path fill="none" stroke="black" stroke-width="2" d="M56.0136,-45.8996C62.2938,-48.0578 69.0247,-50.1484 75.3956,-51.6978 84.9591,-54.0237 95.4865,-55.8148 105.181,-57.1636"/>
<polygon fill="black" stroke="black" stroke-width="2" points="104.925,-60.6593 115.289,-58.4581 105.814,-53.716 104.925,-60.6593"/>
<text text-anchor="middle" x="86.3956" y="-60.4978" font-family="Times,serif" font-size="14.00">E00</text>
</g>
<!-- 1&#45;&gt;0 -->
<g id="edge5" class="edge"><title>1&#45;&gt;0</title>
<path fill="none" stroke="black" stroke-width="2" d="M120.805,-45.0078C113.924,-40.0669 105.737,-35.2386 97.3956,-32.6978 87.79,-29.772 77.0644,-29.1306 67.0332,-29.5756"/>
<polygon fill="black" stroke="black" stroke-width="2" points="66.5976,-26.0991 56.9072,-30.3824 67.1536,-33.077 66.5976,-26.0991"/>
<text text-anchor="middle" x="86.3956" y="-36.4978" font-family="Times,serif" font-size="14.00">E01</text>
</g>
<!-- 2 -->
<g id="node3" class="node"><title>2</title>
<ellipse fill="none" stroke="black" cx="247.489" cy="-24.6978" rx="24.8972" ry="24.8972"/>
<text text-anchor="middle" x="247.489" y="-20.9978" font-family="Times,serif" font-size="14.00">S02</text>
</g>
<!-- 1&#45;&gt;2 -->
<g id="edge2" class="edge"><title>1&#45;&gt;2</title>
<path fill="none" stroke="black" stroke-width="2" d="M163.703,-52.9749C178.43,-47.9448 197.87,-41.3045 214.212,-35.7227"/>
<polygon fill="black" stroke="black" stroke-width="2" points="215.585,-38.9525 223.916,-32.4079 213.322,-32.3282 215.585,-38.9525"/>
<text text-anchor="middle" x="193.791" y="-50.4978" font-family="Times,serif" font-size="14.00">E00</text>
</g>
<!-- 2&#45;&gt;0 -->
<g id="edge3" class="edge"><title>2&#45;&gt;0</title>
<path fill="none" stroke="black" stroke-width="2" d="M223.22,-19.0913C196.963,-13.5306 153.008,-6.53047 115.396,-11.6978 98.8548,-13.9703 81.0083,-18.6006 65.9058,-23.1934"/>
<polygon fill="black" stroke="black" stroke-width="2" points="64.4222,-19.9913 55.9384,-26.3375 66.5281,-26.667 64.4222,-19.9913"/>
<text text-anchor="middle" x="140.093" y="-15.4978" font-family="Times,serif" font-size="14.00">E00</text>
</g>
</g>
</svg>
