<?xml version="1.0" encoding="UTF-8" standalone="no"?>
<!DOCTYPE svg PUBLIC "-//W3C//DTD SVG 1.1//EN"
 "http://www.w3.org/Graphics/SVG/1.1/DTD/svg11.dtd">
<!-- Generated by graphviz version 2.38.0 (20140413.2041)
 -->
<!-- Title: G Pages: 1 -->
<svg width="291pt" height="206pt"
 viewBox="0.00 0.00 291.00 206.00" xmlns="http://www.w3.org/2000/svg" xmlns:xlink="http://www.w3.org/1999/xlink">
<g id="graph0" class="graph" transform="scale(1 1) rotate(0) translate(4 202)">
<title>G</title>
<polygon fill="white" stroke="none" points="-4,4 -4,-202 287,-202 287,4 -4,4"/>
<!-- A -->
<g id="node1" class="node"><title>A</title>
<ellipse fill="none" stroke="black" cx="18" cy="-103" rx="18" ry="18"/>
<text text-anchor="middle" x="18" y="-99.3" font-family="Times,serif" font-size="14.00">A</text>
</g>
<!-- B -->
<g id="node2" class="node"><title>B</title>
<ellipse fill="none" stroke="black" cx="97" cy="-103" rx="18" ry="18"/>
<text text-anchor="middle" x="97" y="-99.3" font-family="Times,serif" font-size="14.00">B</text>
</g>
<!-- A&#45;&gt;B -->
<g id="edge1" class="edge"><title>A&#45;&gt;B</title>
<path fill="none" stroke="black" stroke-width="2" d="M36.0888,-103C45.659,-103 57.8172,-103 68.6766,-103"/>
<polygon fill="black" stroke="black" stroke-width="2" points="68.959,-106.5 78.959,-103 68.9589,-99.5001 68.959,-106.5"/>
<text text-anchor="middle" x="57.5" y="-106.8" font-family="Times,serif" font-size="14.00">1</text>
</g>
<!-- C -->
<g id="node3" class="node"><title>C</title>
<ellipse fill="none" stroke="black" cx="192" cy="-180" rx="18" ry="18"/>
<text text-anchor="middle" x="192" y="-176.3" font-family="Times,serif" font-size="14.00">C</text>
</g>
<!-- B&#45;&gt;C -->
<g id="edge2" class="edge"><title>B&#45;&gt;C</title>
<path fill="none" stroke="black" stroke-width="2" d="M110.338,-115.248C116.91,-121.614 125.224,-129.417 133,-136 144.418,-145.666 157.676,-155.799 168.632,-163.902"/>
<polygon fill="black" stroke="black" stroke-width="2" points="166.709,-166.832 176.845,-169.917 170.845,-161.185 166.709,-166.832"/>
<text text-anchor="middle" x="144.5" y="-156.8" font-family="Times,serif" font-size="14.00">E1</text>
</g>
<!-- D -->
<g id="node4" class="node"><title>D</title>
<ellipse fill="none" stroke="black" cx="192" cy="-126" rx="18" ry="18"/>
<text text-anchor="middle" x="192" y="-122.3" font-family="Times,serif" font-size="14.00">D</text>
</g>
<!-- B&#45;&gt;D -->
<g id="edge3" class="edge"><title>B&#45;&gt;D</title>
<path fill="none" stroke="black" stroke-width="2" d="M114.627,-107.112C128.427,-110.525 148.315,-115.444 164.337,-119.406"/>
<polygon fill="black" stroke="black" stroke-width="2" points="163.656,-122.843 174.204,-121.846 165.337,-116.048 163.656,-122.843"/>
<text text-anchor="middle" x="144.5" y="-120.8" font-family="Times,serif" font-size="14.00">E2</text>
</g>
<!-- E -->
<g id="node5" class="node"><title>E</title>
<ellipse fill="none" stroke="black" cx="192" cy="-72" rx="18" ry="18"/>
<text text-anchor="middle" x="192" y="-68.3" font-family="Times,serif" font-size="14.00">E</text>
</g>
<!-- B&#45;&gt;E -->
<g id="edge4" class="edge"><title>B&#45;&gt;E</title>
<path fill="none" stroke="black" stroke-width="2" d="M114.199,-97.6002C128.249,-92.917 148.835,-86.055 165.158,-80.614"/>
<polygon fill="black" stroke="black" stroke-width="2" points="166.294,-83.9247 174.674,-77.4419 164.081,-77.2839 166.294,-83.9247"/>
<text text-anchor="middle" x="144.5" y="-94.8" font-family="Times,serif" font-size="14.00">SE1</text>
</g>
<!-- F -->
<g id="node6" class="node"><title>F</title>
<ellipse fill="none" stroke="black" cx="192" cy="-18" rx="18" ry="18"/>
<text text-anchor="middle" x="192" y="-14.3" font-family="Times,serif" font-size="14.00">F</text>
</g>
<!-- B&#45;&gt;F -->
<g id="edge5" class="edge"><title>B&#45;&gt;F</title>
<path fill="none" stroke="black" stroke-width="2" d="M109.139,-89.4849C115.769,-81.7298 124.519,-71.9798 133,-64 144.078,-53.5762 157.311,-42.9582 168.337,-34.5537"/>
<polygon fill="black" stroke="black" stroke-width="2" points="170.727,-37.1361 176.624,-28.334 166.525,-31.5376 170.727,-37.1361"/>
<text text-anchor="middle" x="144.5" y="-67.8" font-family="Times,serif" font-size="14.00">SE2</text>
</g>
<!-- H -->
<g id="node8" class="node"><title>H</title>
<ellipse fill="none" stroke="black" cx="265" cy="-180" rx="18" ry="18"/>
<text text-anchor="middle" x="265" y="-176.3" font-family="Times,serif" font-size="14.00">H</text>
</g>
<!-- C&#45;&gt;H -->
<g id="edge8" class="edge"><title>C&#45;&gt;H</title>
<path fill="none" stroke="black" stroke-width="2" d="M210.187,-180C218.211,-180 227.953,-180 236.931,-180"/>
<polygon fill="black" stroke="black" stroke-width="2" points="236.971,-183.5 246.971,-180 236.971,-176.5 236.971,-183.5"/>
</g>
<!-- G -->
<g id="node7" class="node"><title>G</title>
<ellipse fill="none" stroke="black" cx="265" cy="-42" rx="18" ry="18"/>
<text text-anchor="middle" x="265" y="-38.3" font-family="Times,serif" font-size="14.00">G</text>
</g>
<!-- E&#45;&gt;G -->
<g id="edge7" class="edge"><title>E&#45;&gt;G</title>
<path fill="none" stroke="black" stroke-width="2" d="M208.757,-65.342C217.459,-61.6652 228.482,-57.0078 238.388,-52.8221"/>
<polygon fill="black" stroke="black" stroke-width="2" points="239.945,-55.9636 247.795,-48.8474 237.221,-49.5156 239.945,-55.9636"/>
</g>
<!-- F&#45;&gt;G -->
<g id="edge6" class="edge"><title>F&#45;&gt;G</title>
<path fill="none" stroke="black" stroke-width="2" d="M209.467,-23.5664C217.98,-26.4441 228.567,-30.0225 238.141,-33.2588"/>
<polygon fill="black" stroke="black" stroke-width="2" points="237.028,-36.5771 247.622,-36.4638 239.269,-29.9457 237.028,-36.5771"/>
</g>
</g>
</svg>
