<?xml version="1.0" encoding="UTF-8" standalone="no"?>
<!DOCTYPE svg PUBLIC "-//W3C//DTD SVG 1.1//EN"
 "http://www.w3.org/Graphics/SVG/1.1/DTD/svg11.dtd">
<!-- Generated by graphviz version 2.43.0 (0)
 -->
<!-- Title: G Pages: 1 -->
<svg width="303pt" height="207pt"
 viewBox="0.00 0.00 303.09 206.85" xmlns="http://www.w3.org/2000/svg" xmlns:xlink="http://www.w3.org/1999/xlink">
<g id="graph0" class="graph" transform="scale(1 1) rotate(0) translate(4 202.85)">
<title>G</title>
<polygon fill="white" stroke="transparent" points="-4,4 -4,-202.85 299.09,-202.85 299.09,4 -4,4"/>
<!-- A -->
<g id="node1" class="node">
<title>A</title>
<ellipse fill="none" stroke="black" cx="18" cy="-99" rx="18" ry="18"/>
<text text-anchor="middle" x="18" y="-95.3" font-family="Times,serif" font-size="14.00">A</text>
</g>
<!-- B -->
<g id="node2" class="node">
<title>B</title>
<ellipse fill="none" stroke="black" cx="100" cy="-99" rx="18" ry="18"/>
<text text-anchor="middle" x="100" y="-95.3" font-family="Times,serif" font-size="14.00">B</text>
</g>
<!-- A&#45;&gt;B -->
<g id="edge1" class="edge">
<title>A&#45;&gt;B</title>
<path fill="none" stroke="black" stroke-width="2" d="M36.36,-99C46.7,-99 60.06,-99 71.78,-99"/>
<polygon fill="black" stroke="black" stroke-width="2" points="71.95,-102.5 81.95,-99 71.95,-95.5 71.95,-102.5"/>
<text text-anchor="middle" x="59" y="-102.8" font-family="Times,serif" font-size="14.00">1</text>
</g>
<!-- C -->
<g id="node3" class="node">
<title>C</title>
<ellipse fill="none" stroke="black" cx="202.2" cy="-180" rx="18" ry="18"/>
<text text-anchor="middle" x="202.2" y="-176.3" font-family="Times,serif" font-size="14.00">C</text>
</g>
<!-- B&#45;&gt;C -->
<g id="edge2" class="edge">
<title>B&#45;&gt;C</title>
<path fill="none" stroke="black" stroke-width="2" d="M112.74,-112.28C119.28,-119.36 127.75,-128.02 136,-135 149.1,-146.07 164.91,-157.04 177.68,-165.37"/>
<polygon fill="black" stroke="black" stroke-width="2" points="176.06,-168.49 186.36,-170.94 179.84,-162.6 176.06,-168.49"/>
<text text-anchor="middle" x="151" y="-160.8" font-family="Times,serif" font-size="14.00">E1</text>
</g>
<!-- D -->
<g id="node4" class="node">
<title>D</title>
<ellipse fill="none" stroke="black" cx="202.2" cy="-126" rx="18.4" ry="18.4"/>
<text text-anchor="middle" x="202.2" y="-122.3" font-family="Times,serif" font-size="14.00">D</text>
</g>
<!-- B&#45;&gt;D -->
<g id="edge3" class="edge">
<title>B&#45;&gt;D</title>
<path fill="none" stroke="black" stroke-width="2" d="M117.55,-103.46C133.04,-107.63 156.47,-113.95 174.6,-118.83"/>
<polygon fill="black" stroke="black" stroke-width="2" points="173.73,-122.22 184.29,-121.44 175.55,-115.46 173.73,-122.22"/>
<text text-anchor="middle" x="151" y="-119.8" font-family="Times,serif" font-size="14.00">E2</text>
</g>
<!-- E -->
<g id="node5" class="node">
<title>E</title>
<ellipse fill="none" stroke="black" cx="202.2" cy="-72" rx="18" ry="18"/>
<text text-anchor="middle" x="202.2" y="-68.3" font-family="Times,serif" font-size="14.00">E</text>
</g>
<!-- B&#45;&gt;E -->
<g id="edge4" class="edge">
<title>B&#45;&gt;E</title>
<path fill="none" stroke="black" stroke-width="2" d="M117.71,-94.14C123.5,-92.48 130.03,-90.63 136,-89 148.74,-85.52 162.93,-81.8 174.81,-78.73"/>
<polygon fill="black" stroke="black" stroke-width="2" points="175.74,-82.11 184.56,-76.23 174,-75.33 175.74,-82.11"/>
<text text-anchor="middle" x="151" y="-92.8" font-family="Times,serif" font-size="14.00">SE1</text>
</g>
<!-- F -->
<g id="node6" class="node">
<title>F</title>
<ellipse fill="none" stroke="black" cx="202.2" cy="-18" rx="18" ry="18"/>
<text text-anchor="middle" x="202.2" y="-14.3" font-family="Times,serif" font-size="14.00">F</text>
</g>
<!-- B&#45;&gt;F -->
<g id="edge5" class="edge">
<title>B&#45;&gt;F</title>
<path fill="none" stroke="black" stroke-width="2" d="M112.34,-85.64C118.89,-78.28 127.5,-69.21 136,-62 148.99,-50.98 164.8,-40.26 177.6,-32.15"/>
<polygon fill="black" stroke="black" stroke-width="2" points="179.65,-35 186.3,-26.75 175.96,-29.05 179.65,-35"/>
<text text-anchor="middle" x="151" y="-65.8" font-family="Times,serif" font-size="14.00">SE2</text>
</g>
<!-- H -->
<g id="node8" class="node">
<title>H</title>
<ellipse fill="none" stroke="black" cx="276.25" cy="-180" rx="18.7" ry="18.7"/>
<text text-anchor="middle" x="276.25" y="-176.3" font-family="Times,serif" font-size="14.00">H</text>
</g>
<!-- C&#45;&gt;H -->
<g id="edge8" class="edge">
<title>C&#45;&gt;H</title>
<path fill="none" stroke="black" stroke-width="2" d="M220.27,-180C228.29,-180 238.05,-180 247.12,-180"/>
<polygon fill="black" stroke="black" stroke-width="2" points="247.29,-183.5 257.29,-180 247.29,-176.5 247.29,-183.5"/>
</g>
<!-- G -->
<g id="node7" class="node">
<title>G</title>
<ellipse fill="none" stroke="black" cx="276.25" cy="-46" rx="18.4" ry="18.4"/>
<text text-anchor="middle" x="276.25" y="-42.3" font-family="Times,serif" font-size="14.00">G</text>
</g>
<!-- E&#45;&gt;G -->
<g id="edge7" class="edge">
<title>E&#45;&gt;G</title>
<path fill="none" stroke="black" stroke-width="2" d="M219.55,-66.1C228.39,-62.91 239.52,-58.89 249.49,-55.29"/>
<polygon fill="black" stroke="black" stroke-width="2" points="250.74,-58.56 258.96,-51.88 248.37,-51.98 250.74,-58.56"/>
</g>
<!-- F&#45;&gt;G -->
<g id="edge6" class="edge">
<title>F&#45;&gt;G</title>
<path fill="none" stroke="black" stroke-width="2" d="M219.19,-24.21C228.08,-27.67 239.36,-32.05 249.47,-35.98"/>
<polygon fill="black" stroke="black" stroke-width="2" points="248.46,-39.35 259.05,-39.71 251,-32.82 248.46,-39.35"/>
</g>
</g>
</svg>
