<?xml version="1.0" encoding="UTF-8" standalone="no"?>
<!DOCTYPE svg PUBLIC "-//W3C//DTD SVG 1.1//EN"
 "http://www.w3.org/Graphics/SVG/1.1/DTD/svg11.dtd">
<!-- Generated by graphviz version 2.36.0 (20140111.2315)
 -->
<!-- Title: G Pages: 1 -->
<svg width="294pt" height="206pt"
 viewBox="0.00 0.00 294.00 206.00" xmlns="http://www.w3.org/2000/svg" xmlns:xlink="http://www.w3.org/1999/xlink">
<g id="graph0" class="graph" transform="scale(1 1) rotate(0) translate(4 202)">
<title>G</title>
<polygon fill="white" stroke="none" points="-4,4 -4,-202 290,-202 290,4 -4,4"/>
<!-- A -->
<g id="node1" class="node"><title>A</title>
<ellipse fill="none" stroke="black" cx="18" cy="-103" rx="18" ry="18"/>
<text text-anchor="middle" x="18" y="-99.3" font-family="Times,serif" font-size="14.00">A</text>
</g>
<!-- B -->
<g id="node2" class="node"><title>B</title>
<ellipse fill="none" stroke="black" cx="98" cy="-103" rx="18" ry="18"/>
<text text-anchor="middle" x="98" y="-99.3" font-family="Times,serif" font-size="14.00">B</text>
</g>
<!-- A&#45;&gt;B -->
<g id="edge1" class="edge"><title>A&#45;&gt;B</title>
<path fill="none" stroke="black" stroke-width="2" d="M36.3107,-103C46.1062,-103 58.5782,-103 69.665,-103"/>
<polygon fill="black" stroke="black" stroke-width="2" points="69.7377,-106.5 79.7377,-103 69.7376,-99.5001 69.7377,-106.5"/>
<text text-anchor="middle" x="58" y="-106.8" font-family="Times,serif" font-size="14.00">1</text>
</g>
<!-- C -->
<g id="node3" class="node"><title>C</title>
<ellipse fill="none" stroke="black" cx="194" cy="-180" rx="18" ry="18"/>
<text text-anchor="middle" x="194" y="-176.3" font-family="Times,serif" font-size="14.00">C</text>
</g>
<!-- B&#45;&gt;C -->
<g id="edge2" class="edge"><title>B&#45;&gt;C</title>
<path fill="none" stroke="black" stroke-width="2" d="M111.316,-115.274C117.882,-121.647 126.197,-129.449 134,-136 145.583,-145.724 159.067,-155.862 170.219,-163.952"/>
<polygon fill="black" stroke="black" stroke-width="2" points="168.416,-166.967 178.581,-169.955 172.498,-161.28 168.416,-166.967"/>
<text text-anchor="middle" x="146" y="-157.8" font-family="Times,serif" font-size="14.00">E1</text>
</g>
<!-- D -->
<g id="node4" class="node"><title>D</title>
<ellipse fill="none" stroke="black" cx="194" cy="-126" rx="18" ry="18"/>
<text text-anchor="middle" x="194" y="-122.3" font-family="Times,serif" font-size="14.00">D</text>
</g>
<!-- B&#45;&gt;D -->
<g id="edge3" class="edge"><title>B&#45;&gt;D</title>
<path fill="none" stroke="black" stroke-width="2" d="M115.805,-107.112C129.841,-110.546 150.106,-115.505 166.351,-119.48"/>
<polygon fill="black" stroke="black" stroke-width="2" points="165.795,-122.947 176.34,-121.924 167.459,-116.147 165.795,-122.947"/>
<text text-anchor="middle" x="146" y="-120.8" font-family="Times,serif" font-size="14.00">E2</text>
</g>
<!-- E -->
<g id="node5" class="node"><title>E</title>
<ellipse fill="none" stroke="black" cx="194" cy="-72" rx="18" ry="18"/>
<text text-anchor="middle" x="194" y="-68.3" font-family="Times,serif" font-size="14.00">E</text>
</g>
<!-- B&#45;&gt;E -->
<g id="edge4" class="edge"><title>B&#45;&gt;E</title>
<path fill="none" stroke="black" stroke-width="2" d="M115.374,-97.6002C129.574,-92.917 150.382,-86.055 166.88,-80.614"/>
<polygon fill="black" stroke="black" stroke-width="2" points="168.098,-83.8979 176.499,-77.4419 165.906,-77.25 168.098,-83.8979"/>
<text text-anchor="middle" x="146" y="-94.8" font-family="Times,serif" font-size="14.00">SE1</text>
</g>
<!-- F -->
<g id="node6" class="node"><title>F</title>
<ellipse fill="none" stroke="black" cx="194" cy="-18" rx="18" ry="18"/>
<text text-anchor="middle" x="194" y="-14.3" font-family="Times,serif" font-size="14.00">F</text>
</g>
<!-- B&#45;&gt;F -->
<g id="edge5" class="edge"><title>B&#45;&gt;F</title>
<path fill="none" stroke="black" stroke-width="2" d="M110.114,-89.4584C116.736,-81.6945 125.486,-71.9445 134,-64 145.502,-53.267 159.328,-42.3927 170.704,-33.9136"/>
<polygon fill="black" stroke="black" stroke-width="2" points="172.855,-36.6765 178.846,-27.9384 168.714,-31.033 172.855,-36.6765"/>
<text text-anchor="middle" x="146" y="-67.8" font-family="Times,serif" font-size="14.00">SE2</text>
</g>
<!-- H -->
<g id="node8" class="node"><title>H</title>
<ellipse fill="none" stroke="black" cx="268" cy="-180" rx="18" ry="18"/>
<text text-anchor="middle" x="268" y="-176.3" font-family="Times,serif" font-size="14.00">H</text>
</g>
<!-- C&#45;&gt;H -->
<g id="edge8" class="edge"><title>C&#45;&gt;H</title>
<path fill="none" stroke="black" stroke-width="2" d="M212.063,-180C220.193,-180 230.124,-180 239.295,-180"/>
<polygon fill="black" stroke="black" stroke-width="2" points="239.559,-183.5 249.559,-180 239.559,-176.5 239.559,-183.5"/>
</g>
<!-- G -->
<g id="node7" class="node"><title>G</title>
<ellipse fill="none" stroke="black" cx="268" cy="-42" rx="18" ry="18"/>
<text text-anchor="middle" x="268" y="-38.3" font-family="Times,serif" font-size="14.00">G</text>
</g>
<!-- E&#45;&gt;G -->
<g id="edge7" class="edge"><title>E&#45;&gt;G</title>
<path fill="none" stroke="black" stroke-width="2" d="M210.979,-65.342C220.021,-61.5746 231.534,-56.7776 241.768,-52.5134"/>
<polygon fill="black" stroke="black" stroke-width="2" points="243.181,-55.7163 251.066,-48.6394 240.489,-49.2548 243.181,-55.7163"/>
</g>
<!-- F&#45;&gt;G -->
<g id="edge6" class="edge"><title>F&#45;&gt;G</title>
<path fill="none" stroke="black" stroke-width="2" d="M211.338,-23.446C220.083,-26.3611 231.062,-30.0206 240.953,-33.3175"/>
<polygon fill="black" stroke="black" stroke-width="2" points="240.133,-36.7336 250.727,-36.5756 242.347,-30.0928 240.133,-36.7336"/>
</g>
</g>
</svg>
