<?xml version="1.0" encoding="UTF-8" standalone="no"?>
<svg
   xmlns:dc="http://purl.org/dc/elements/1.1/"
   xmlns:cc="http://creativecommons.org/ns#"
   xmlns:rdf="http://www.w3.org/1999/02/22-rdf-syntax-ns#"
   xmlns:svg="http://www.w3.org/2000/svg"
   xmlns="http://www.w3.org/2000/svg"
   xmlns:sodipodi="http://sodipodi.sourceforge.net/DTD/sodipodi-0.dtd"
   xmlns:inkscape="http://www.inkscape.org/namespaces/inkscape"
   width="300"
   height="200"
   version="1.1"
   id="svg4"
   sodipodi:docname="SpagFSM_Logo.svg"
   inkscape:version="0.92.3 (unknown)">
  <metadata
     id="metadata10">
    <rdf:RDF>
      <cc:Work
         rdf:about="">
        <dc:format>image/svg+xml</dc:format>
        <dc:type
           rdf:resource="http://purl.org/dc/dcmitype/StillImage" />
        <dc:title></dc:title>
      </cc:Work>
    </rdf:RDF>
  </metadata>
  <defs
     id="defs8" />
  <sodipodi:namedview
     pagecolor="#ffffff"
     bordercolor="#666666"
     borderopacity="1"
     objecttolerance="10"
     gridtolerance="10"
     guidetolerance="10"
     inkscape:pageopacity="0"
     inkscape:pageshadow="2"
     inkscape:window-width="1680"
     inkscape:window-height="973"
     id="namedview6"
     showgrid="false"
     inkscape:zoom="1.668772"
     inkscape:cx="-90.886458"
     inkscape:cy="30.206249"
     inkscape:window-x="0"
     inkscape:window-y="24"
     inkscape:window-maximized="1"
     inkscape:current-layer="svg4" />
  <path
     style="fill:#000000"
     d="m 67.279915,165.99168 c -10.581949,-11.00734 9.184137,-15.78502 16.772755,-15.04094 -1.061457,-9.47604 3.257604,-20.26729 4.536445,-27.49248 -9.932412,-7.96124 -21.749588,0.7858 -21.101259,12.47281 -2.282401,15.61726 -18.018116,12.63336 -29.22415,11.11407 -6.932415,1.25295 -22.01997,5.30213 -17.523128,-7.04949 6.583542,-12.54344 20.537558,-5.33169 31.002076,-6.33697 6.09433,-6.26859 3.616326,-18.07601 13.203832,-23.17246 C 69.769725,102.49972 52.966717,94.156922 46.702322,98.029715 50.989027,108.31275 40.229889,122.87866 29.270437,115.50416 23.196529,106.68414 6.1469661,111.82686 5.2902978,101.02791 10.432067,89.817676 25.160135,96.893634 32.297214,100.44098 31.433617,86.371455 45.64931,78.97538 57.886456,85.283123 c 13.157754,6.97834 26.224968,6.945246 40.414477,-3.37713 9.391017,-4.668245 18.354097,-6.960673 27.057017,-8.967096 11.23735,-1.363409 16.65093,-2.787708 26.33595,-3.243936 4.15932,-0.567742 18.05338,1.158035 21.47714,3.179842 15.53866,2.926011 30.20665,9.874854 42.43022,19.82044 11.83115,4.646774 21.31072,-13.551145 34.61077,-7.92964 12.04204,-1.354969 7.52756,25.051217 18.43809,12.74092 7.08768,-6.54442 27.29077,3.695057 14.99453,9.969297 -11.90809,1.21229 -23.20123,15.69501 -35.29816,7.6482 -5.13527,-5.68911 1.13792,-23.175047 -11.0606,-15.149154 -6.77431,1.225744 -10.43395,5.522844 -9.65931,9.491034 8.31499,8.06868 7.81472,8.75672 11.43862,20.04754 1.87396,5.01545 4.94818,8.13872 12.34298,3.91195 10.12215,-5.21061 31.41155,9.51232 16.58715,16.96238 -10.88017,-7.40808 -22.18434,1.21545 -33.83526,-2.27439 -11.45842,-5.45318 -4.2822,-29.7489 -21.22606,-27.10458 -6.36361,-0.74401 -8.31107,2.05697 -7.77634,5.56442 6.14417,7.53493 2.15342,14.49372 5.02487,22.65522 1.61372,3.15336 4.94159,4.64116 11.1695,2.54767 13.38099,3.13578 5.94858,20.75492 -6.12682,13.91356 -12.48022,1.05815 -23.70887,-8.11323 -19.28625,-21.078 -1.86446,-16.25442 -18.75305,-10.01671 -29.0355,-7.14105 -17.74787,3.80291 -36.23002,2.53736 -53.55384,-2.67223 -10.79692,-4.59375 -17.686752,5.15055 -14.186644,14.95546 -0.328163,15.45222 -17.892924,17.32088 -29.742531,16.6328 z M 163.5,127.91214 c 15.04132,-1.64077 29.42809,-8.31031 41.1872,-17.59078 12.14885,-4.83524 3.95887,-12.656841 -4.21321,-15.385987 -34.97917,-20.29144 -82.08627,-19.154258 -114.728929,5.337057 -9.716229,7.57647 10.601846,10.68157 14.929319,16.39786 18.05995,12.73064 41.55473,14.40438 62.82562,11.24185 z"
     id="path2"
     inkscape:connector-curvature="0"
     sodipodi:nodetypes="ccccccccccccccccccccccccccccccccccccccccccccc" />
</svg>
