<?xml version="1.0" encoding="UTF-8" standalone="no"?>
<!DOCTYPE svg PUBLIC "-//W3C//DTD SVG 1.1//EN"
 "http://www.w3.org/Graphics/SVG/1.1/DTD/svg11.dtd">
<!-- Generated by graphviz version 2.36.0 (20140111.2315)
 -->
<!-- Title: G Pages: 1 -->
<svg width="394pt" height="85pt"
 viewBox="0.00 0.00 394.00 85.00" xmlns="http://www.w3.org/2000/svg" xmlns:xlink="http://www.w3.org/1999/xlink">
<g id="graph0" class="graph" transform="scale(1 1) rotate(0) translate(4 81)">
<title>G</title>
<polygon fill="white" stroke="none" points="-4,4 -4,-81 390,-81 390,4 -4,4"/>
<!-- 0 -->
<g id="node1" class="node"><title>0</title>
<ellipse fill="none" stroke="black" cx="22" cy="-22" rx="18" ry="18"/>
<ellipse fill="none" stroke="black" cx="22" cy="-22" rx="22" ry="22"/>
<text text-anchor="middle" x="22" y="-18.3" font-family="Times,serif" font-size="14.00">0</text>
</g>
<!-- 1 -->
<g id="node2" class="node"><title>1</title>
<ellipse fill="none" stroke="black" cx="131" cy="-22" rx="27" ry="18"/>
<text text-anchor="middle" x="131" y="-18.3" font-family="Times,serif" font-size="14.00">1</text>
</g>
<!-- 0&#45;&gt;1 -->
<g id="edge1" class="edge"><title>0&#45;&gt;1</title>
<path fill="none" stroke="black" d="M44.1398,-22C58.2287,-22 77.1135,-22 93.5846,-22"/>
<polygon fill="black" stroke="black" points="93.9852,-25.5001 103.985,-22 93.9851,-18.5001 93.9852,-25.5001"/>
<text text-anchor="middle" x="74" y="-25.8" font-family="Times,serif" font-size="14.00">TO:3</text>
</g>
<!-- 3 -->
<g id="node3" class="node"><title>3</title>
<ellipse fill="none" stroke="black" cx="245" cy="-59" rx="27" ry="18"/>
<text text-anchor="middle" x="245" y="-55.3" font-family="Times,serif" font-size="14.00">3</text>
</g>
<!-- 1&#45;&gt;3 -->
<g id="edge2" class="edge"><title>1&#45;&gt;3</title>
<path fill="none" stroke="black" d="M155.479,-29.7564C171.458,-35.0352 192.843,-42.0999 210.591,-47.9631"/>
<polygon fill="black" stroke="black" points="209.959,-51.4402 220.552,-51.2538 212.155,-44.7936 209.959,-51.4402"/>
<text text-anchor="middle" x="188" y="-47.8" font-family="Times,serif" font-size="14.00">TO:4</text>
</g>
<!-- 2 -->
<g id="node4" class="node"><title>2</title>
<ellipse fill="none" stroke="black" cx="359" cy="-22" rx="27" ry="18"/>
<text text-anchor="middle" x="359" y="-18.3" font-family="Times,serif" font-size="14.00">2</text>
</g>
<!-- 3&#45;&gt;2 -->
<g id="edge4" class="edge"><title>3&#45;&gt;2</title>
<path fill="none" stroke="black" d="M269.479,-51.2436C285.458,-45.9648 306.843,-38.9001 324.591,-33.0369"/>
<polygon fill="black" stroke="black" points="326.155,-36.2064 334.552,-29.7462 323.959,-29.5598 326.155,-36.2064"/>
<text text-anchor="middle" x="302" y="-47.8" font-family="Times,serif" font-size="14.00">TO:4</text>
</g>
<!-- 2&#45;&gt;1 -->
<g id="edge3" class="edge"><title>2&#45;&gt;1</title>
<path fill="none" stroke="black" d="M332.918,-16.8199C315.834,-13.5624 292.657,-9.67037 272,-8 248.078,-6.0656 241.922,-6.0656 218,-8 201.216,-9.35717 182.769,-12.181 167.278,-14.9394"/>
<polygon fill="black" stroke="black" points="166.281,-11.5641 157.082,-16.8199 167.551,-18.448 166.281,-11.5641"/>
<text text-anchor="middle" x="245" y="-11.8" font-family="Times,serif" font-size="14.00">TO:1</text>
</g>
</g>
</svg>
